<?xml version="1.0" encoding="UTF-8" standalone="no"?>
<!DOCTYPE svg PUBLIC "-//W3C//DTD SVG 1.1//EN"
 "http://www.w3.org/Graphics/SVG/1.1/DTD/svg11.dtd">
<!-- Generated by graphviz version 2.38.0 (20140413.2041)
 -->
<!-- Title: G Pages: 1 -->
<svg width="945pt" height="343pt"
 viewBox="0.00 0.00 945.15 343.00" xmlns="http://www.w3.org/2000/svg" xmlns:xlink="http://www.w3.org/1999/xlink">
<g id="graph0" class="graph" transform="scale(1 1) rotate(0) translate(4 339)">
<title>G</title>
<polygon fill="white" stroke="none" points="-4,4 -4,-339 941.149,-339 941.149,4 -4,4"/>
<g id="clust1" class="cluster"><title>cluster&#45;r0&#45;node1_r0&#45;node2</title>
<polygon fill="none" stroke="black" points="564,-8 564,-98 864,-98 864,-8 564,-8"/>
<text text-anchor="middle" x="714" y="-82.8" font-family="Times,serif" font-size="14.00">10.69.0.65/26</text>
<text text-anchor="middle" x="714" y="-67.8" font-family="Times,serif" font-size="14.00">10.69.0.129/26</text>
</g>
<g id="clust2" class="cluster"><title>cluster&#45;r1&#45;node1_r1&#45;node2</title>
<polygon fill="none" stroke="black" points="8,-8 8,-98 520,-98 520,-8 8,-8"/>
<text text-anchor="middle" x="264" y="-82.8" font-family="Times,serif" font-size="14.00">10.69.1.1/26</text>
<text text-anchor="middle" x="264" y="-67.8" font-family="Times,serif" font-size="14.00">10.69.1.65/26</text>
</g>
<!-- spine2 -->
<g id="node1" class="node"><title>spine2</title>
<polygon fill="none" stroke="black" points="353,-248 305.407,-230 353,-212 400.593,-230 353,-248"/>
<text text-anchor="middle" x="353" y="-226.3" font-family="Times,serif" font-size="14.00">spine2</text>
</g>
<!-- rack1&#45;tor2 -->
<g id="node2" class="node"><title>rack1&#45;tor2</title>
<polygon fill="none" stroke="black" points="322,-161 254.803,-143 322,-125 389.197,-143 322,-161"/>
<text text-anchor="middle" x="322" y="-139.3" font-family="Times,serif" font-size="14.00">rack1&#45;tor2</text>
</g>
<!-- spine2&#45;&#45;rack1&#45;tor2 -->
<g id="edge1" class="edge"><title>spine2&#45;&#45;rack1&#45;tor2</title>
<path fill="none" stroke="black" d="M317.706,-225.298C297.5,-221.163 273.708,-212.43 261,-194 249.185,-176.864 272.905,-162.45 294.128,-153.567"/>
<text text-anchor="middle" x="296" y="-182.8" font-family="Times,serif" font-size="14.00">10.0.1.15/31</text>
</g>
<!-- rack0&#45;tor2 -->
<g id="node6" class="node"><title>rack0&#45;tor2</title>
<polygon fill="none" stroke="black" points="635,-161 567.803,-143 635,-125 702.197,-143 635,-161"/>
<text text-anchor="middle" x="635" y="-139.3" font-family="Times,serif" font-size="14.00">rack0&#45;tor2</text>
</g>
<!-- spine2&#45;&#45;rack0&#45;tor2 -->
<g id="edge10" class="edge"><title>spine2&#45;&#45;rack0&#45;tor2</title>
<path fill="none" stroke="black" d="M348.508,-213.534C346.342,-202.541 345.747,-188.159 354,-179 368.995,-162.36 505.056,-151.674 582.207,-146.898"/>
<text text-anchor="middle" x="389" y="-182.8" font-family="Times,serif" font-size="14.00">10.0.1.11/31</text>
</g>
<!-- rack0&#45;tor1 -->
<g id="node7" class="node"><title>rack0&#45;tor1</title>
<polygon fill="none" stroke="black" points="787,-161 719.803,-143 787,-125 854.197,-143 787,-161"/>
<text text-anchor="middle" x="787" y="-139.3" font-family="Times,serif" font-size="14.00">rack0&#45;tor1</text>
</g>
<!-- spine2&#45;&#45;rack0&#45;tor1 -->
<g id="edge6" class="edge"><title>spine2&#45;&#45;rack0&#45;tor1</title>
<path fill="none" stroke="black" d="M373.535,-219.677C387.898,-212.963 407.403,-203.458 424,-194 434.603,-187.958 435.427,-182.874 447,-179 558.524,-141.672 594.613,-177.885 711,-161 725.451,-158.904 741.235,-155.55 754.656,-152.374"/>
<text text-anchor="middle" x="478.5" y="-182.8" font-family="Times,serif" font-size="14.00">10.0.1.9/31</text>
</g>
<!-- rack1&#45;tor1 -->
<g id="node8" class="node"><title>rack1&#45;tor1</title>
<polygon fill="none" stroke="black" points="170,-161 102.803,-143 170,-125 237.197,-143 170,-161"/>
<text text-anchor="middle" x="170" y="-139.3" font-family="Times,serif" font-size="14.00">rack1&#45;tor1</text>
</g>
<!-- spine2&#45;&#45;rack1&#45;tor1 -->
<g id="edge11" class="edge"><title>spine2&#45;&#45;rack1&#45;tor1</title>
<path fill="none" stroke="black" d="M316.056,-225.808C272.245,-221.282 202.782,-211.532 184,-194 175.038,-185.634 171.647,-172.046 170.437,-161.145"/>
<text text-anchor="middle" x="219" y="-182.8" font-family="Times,serif" font-size="14.00">10.0.1.13/31</text>
</g>
<!-- boot&#45;1 -->
<g id="node13" class="node"><title>boot&#45;1</title>
<ellipse fill="none" stroke="black" cx="262" cy="-34" rx="33.5952" ry="18"/>
<text text-anchor="middle" x="262" y="-30.3" font-family="Times,serif" font-size="14.00">boot&#45;1</text>
</g>
<!-- rack1&#45;tor2&#45;&#45;boot&#45;1 -->
<g id="edge20" class="edge"><title>rack1&#45;tor2&#45;&#45;boot&#45;1</title>
<path fill="none" stroke="black" d="M316.68,-126.281C314.306,-119.862 311.299,-112.448 308,-106 297.899,-86.256 283.71,-65.1018 273.77,-51.0701"/>
</g>
<!-- rack1&#45;cs1 -->
<g id="node14" class="node"><title>rack1&#45;cs1</title>
<ellipse fill="none" stroke="black" cx="467" cy="-34" rx="44.6926" ry="18"/>
<text text-anchor="middle" x="467" y="-30.3" font-family="Times,serif" font-size="14.00">rack1&#45;cs1</text>
</g>
<!-- rack1&#45;tor2&#45;&#45;rack1&#45;cs1 -->
<g id="edge22" class="edge"><title>rack1&#45;tor2&#45;&#45;rack1&#45;cs1</title>
<path fill="none" stroke="black" d="M349.539,-132.155C368.507,-124.576 393.675,-112.883 413,-98 430.12,-84.8153 445.717,-65.4521 455.698,-51.6774"/>
</g>
<!-- rack1&#45;cs2 -->
<g id="node15" class="node"><title>rack1&#45;cs2</title>
<ellipse fill="none" stroke="black" cx="359" cy="-34" rx="44.6926" ry="18"/>
<text text-anchor="middle" x="359" y="-30.3" font-family="Times,serif" font-size="14.00">rack1&#45;cs2</text>
</g>
<!-- rack1&#45;tor2&#45;&#45;rack1&#45;cs2 -->
<g id="edge24" class="edge"><title>rack1&#45;tor2&#45;&#45;rack1&#45;cs2</title>
<path fill="none" stroke="black" d="M328.512,-126.41C330.957,-120.383 333.699,-113.406 336,-107 342.699,-88.3519 349.497,-66.6528 353.947,-51.9899"/>
</g>
<!-- rack1&#45;ss1 -->
<g id="node16" class="node"><title>rack1&#45;ss1</title>
<ellipse fill="none" stroke="black" cx="166" cy="-34" rx="44.393" ry="18"/>
<text text-anchor="middle" x="166" y="-30.3" font-family="Times,serif" font-size="14.00">rack1&#45;ss1</text>
</g>
<!-- rack1&#45;tor2&#45;&#45;rack1&#45;ss1 -->
<g id="edge26" class="edge"><title>rack1&#45;tor2&#45;&#45;rack1&#45;ss1</title>
<path fill="none" stroke="black" d="M310.523,-127.727C303.447,-119.969 293.697,-110.969 283,-106 257.002,-93.9229 244.186,-111.69 219,-98 199.535,-87.42 184.212,-66.5564 175.15,-51.7405"/>
</g>
<!-- rack1&#45;ss2 -->
<g id="node17" class="node"><title>rack1&#45;ss2</title>
<ellipse fill="none" stroke="black" cx="60" cy="-34" rx="44.393" ry="18"/>
<text text-anchor="middle" x="60" y="-30.3" font-family="Times,serif" font-size="14.00">rack1&#45;ss2</text>
</g>
<!-- rack1&#45;tor2&#45;&#45;rack1&#45;ss2 -->
<g id="edge28" class="edge"><title>rack1&#45;tor2&#45;&#45;rack1&#45;ss2</title>
<path fill="none" stroke="black" d="M287.603,-134.155C274.583,-131.225 259.62,-127.905 246,-125 231.253,-121.854 125.966,-105.699 113,-98 94.0736,-86.7618 78.7386,-66.2463 69.523,-51.6821"/>
</g>
<!-- core -->
<g id="node3" class="node"><title>core</title>
<polygon fill="none" stroke="black" points="692,-335 655.466,-317 692,-299 728.534,-317 692,-335"/>
<text text-anchor="middle" x="692" y="-313.3" font-family="Times,serif" font-size="14.00">core</text>
</g>
<!-- core&#45;&#45;spine2 -->
<g id="edge2" class="edge"><title>core&#45;&#45;spine2</title>
<path fill="none" stroke="black" d="M668.966,-310.224C608.462,-295.054 445.234,-254.127 380.241,-237.83"/>
<text text-anchor="middle" x="574.5" y="-269.8" font-family="Times,serif" font-size="14.00">10.0.2.3/31</text>
</g>
<!-- operation -->
<g id="node4" class="node"><title>operation</title>
<polygon fill="none" stroke="black" points="746,-248 683.495,-230 746,-212 808.505,-230 746,-248"/>
<text text-anchor="middle" x="746" y="-226.3" font-family="Times,serif" font-size="14.00">operation</text>
</g>
<!-- core&#45;&#45;operation -->
<g id="edge3" class="edge"><title>core&#45;&#45;operation</title>
<path fill="none" stroke="black" d="M700.438,-302.719C710.286,-287.217 726.52,-261.663 736.717,-245.612"/>
<text text-anchor="middle" x="753.5" y="-269.8" font-family="Times,serif" font-size="14.00">10.0.4.2/24</text>
</g>
<!-- spine1 -->
<g id="node5" class="node"><title>spine1</title>
<polygon fill="none" stroke="black" points="618,-248 570.407,-230 618,-212 665.593,-230 618,-248"/>
<text text-anchor="middle" x="618" y="-226.3" font-family="Times,serif" font-size="14.00">spine1</text>
</g>
<!-- core&#45;&#45;spine1 -->
<g id="edge5" class="edge"><title>core&#45;&#45;spine1</title>
<path fill="none" stroke="black" d="M677.008,-306.14C667.925,-299.692 656.492,-290.69 648,-281 638.525,-270.189 630.331,-255.988 624.912,-245.483"/>
<text text-anchor="middle" x="679.5" y="-269.8" font-family="Times,serif" font-size="14.00">10.0.2.1/31</text>
</g>
<!-- external -->
<g id="node9" class="node"><title>external</title>
<polygon fill="none" stroke="black" points="882,-248 826.701,-230 882,-212 937.299,-230 882,-248"/>
<text text-anchor="middle" x="882" y="-226.3" font-family="Times,serif" font-size="14.00">external</text>
</g>
<!-- core&#45;&#45;external -->
<g id="edge12" class="edge"><title>core&#45;&#45;external</title>
<path fill="none" stroke="black" d="M713.165,-309.361C733.055,-302.89 763.496,-292.383 789,-281 815.449,-269.195 844.675,-252.916 863.176,-242.182"/>
<text text-anchor="middle" x="848.5" y="-269.8" font-family="Times,serif" font-size="14.00">10.0.3.2/24</text>
</g>
<!-- spine1&#45;&#45;rack1&#45;tor2 -->
<g id="edge9" class="edge"><title>spine1&#45;&#45;rack1&#45;tor2</title>
<path fill="none" stroke="black" d="M615.216,-212.88C612.377,-201.563 606.788,-187.06 596,-179 563.249,-154.53 452.583,-147.13 382.315,-144.916"/>
<text text-anchor="middle" x="638.5" y="-182.8" font-family="Times,serif" font-size="14.00">10.0.1.7/31</text>
</g>
<!-- spine1&#45;&#45;rack0&#45;tor2 -->
<g id="edge4" class="edge"><title>spine1&#45;&#45;rack0&#45;tor2</title>
<path fill="none" stroke="black" d="M644.127,-221.834C657.983,-216.556 673.798,-207.835 682,-194 690.992,-178.833 673.878,-164.492 657.838,-155.09"/>
<text text-anchor="middle" x="715.5" y="-182.8" font-family="Times,serif" font-size="14.00">10.0.1.3/31</text>
</g>
<!-- spine1&#45;&#45;rack0&#45;tor1 -->
<g id="edge7" class="edge"><title>spine1&#45;&#45;rack0&#45;tor1</title>
<path fill="none" stroke="black" d="M642.434,-221.205C652.209,-218.186 663.598,-214.791 674,-212 707.944,-202.891 721.762,-213.501 751,-194 763.814,-185.453 773.603,-170.701 779.716,-159.429"/>
<text text-anchor="middle" x="797.5" y="-182.8" font-family="Times,serif" font-size="14.00">10.0.1.1/31</text>
</g>
<!-- spine1&#45;&#45;rack1&#45;tor1 -->
<g id="edge8" class="edge"><title>spine1&#45;&#45;rack1&#45;tor1</title>
<path fill="none" stroke="black" d="M592.933,-221.347C574.59,-215.229 549.443,-205.745 529,-194 519.671,-188.64 520.038,-182.872 510,-179 455.138,-157.836 304.194,-169.442 246,-161 231.549,-158.904 215.765,-155.55 202.344,-152.374"/>
<text text-anchor="middle" x="560.5" y="-182.8" font-family="Times,serif" font-size="14.00">10.0.1.5/31</text>
</g>
<!-- boot&#45;0 -->
<g id="node10" class="node"><title>boot&#45;0</title>
<ellipse fill="none" stroke="black" cx="822" cy="-34" rx="33.5952" ry="18"/>
<text text-anchor="middle" x="822" y="-30.3" font-family="Times,serif" font-size="14.00">boot&#45;0</text>
</g>
<!-- rack0&#45;tor2&#45;&#45;boot&#45;0 -->
<g id="edge14" class="edge"><title>rack0&#45;tor2&#45;&#45;boot&#45;0</title>
<path fill="none" stroke="black" d="M669.732,-134.197C706.496,-125.452 761.575,-110.818 779,-98 795.214,-86.073 807.333,-66.0994 814.504,-51.8392"/>
</g>
<!-- rack0&#45;cs1 -->
<g id="node11" class="node"><title>rack0&#45;cs1</title>
<ellipse fill="none" stroke="black" cx="725" cy="-34" rx="44.6926" ry="18"/>
<text text-anchor="middle" x="725" y="-30.3" font-family="Times,serif" font-size="14.00">rack0&#45;cs1</text>
</g>
<!-- rack0&#45;tor2&#45;&#45;rack0&#45;cs1 -->
<g id="edge16" class="edge"><title>rack0&#45;tor2&#45;&#45;rack0&#45;cs1</title>
<path fill="none" stroke="black" d="M646.766,-128.012C663.347,-108.298 693.531,-72.4137 711.165,-51.4477"/>
</g>
<!-- rack0&#45;cs2 -->
<g id="node12" class="node"><title>rack0&#45;cs2</title>
<ellipse fill="none" stroke="black" cx="617" cy="-34" rx="44.6926" ry="18"/>
<text text-anchor="middle" x="617" y="-30.3" font-family="Times,serif" font-size="14.00">rack0&#45;cs2</text>
</g>
<!-- rack0&#45;tor2&#45;&#45;rack0&#45;cs2 -->
<g id="edge18" class="edge"><title>rack0&#45;tor2&#45;&#45;rack0&#45;cs2</title>
<path fill="none" stroke="black" d="M632.188,-125.281C628.845,-105.415 623.297,-72.4331 619.912,-52.3103"/>
</g>
<!-- rack0&#45;tor1&#45;&#45;boot&#45;0 -->
<g id="edge13" class="edge"><title>rack0&#45;tor1&#45;&#45;boot&#45;0</title>
<path fill="none" stroke="black" d="M792.164,-126.212C798.668,-106.33 809.795,-72.3123 816.467,-51.9139"/>
</g>
<!-- rack0&#45;tor1&#45;&#45;rack0&#45;cs1 -->
<g id="edge15" class="edge"><title>rack0&#45;tor1&#45;&#45;rack0&#45;cs1</title>
<path fill="none" stroke="black" d="M778.379,-127.122C766.933,-107.369 746.772,-72.5734 734.773,-51.8659"/>
</g>
<!-- rack0&#45;tor1&#45;&#45;rack0&#45;cs2 -->
<g id="edge17" class="edge"><title>rack0&#45;tor1&#45;&#45;rack0&#45;cs2</title>
<path fill="none" stroke="black" d="M753.109,-133.981C728.749,-127.114 695.94,-115.518 671,-98 653.082,-85.414 637.405,-65.5639 627.624,-51.5129"/>
</g>
<!-- rack1&#45;tor1&#45;&#45;boot&#45;1 -->
<g id="edge19" class="edge"><title>rack1&#45;tor1&#45;&#45;boot&#45;1</title>
<path fill="none" stroke="black" d="M184.797,-128.643C192.332,-121.852 201.644,-113.474 210,-106 213.989,-102.432 215.465,-102.018 219,-98 231.946,-83.2854 244.295,-64.5282 252.41,-51.3206"/>
</g>
<!-- rack1&#45;tor1&#45;&#45;rack1&#45;cs1 -->
<g id="edge21" class="edge"><title>rack1&#45;tor1&#45;&#45;rack1&#45;cs1</title>
<path fill="none" stroke="black" d="M203.959,-133.949C217.06,-130.962 232.192,-127.658 246,-125 282.915,-117.894 380.213,-116.392 413,-98 432.348,-87.1462 447.959,-66.5526 457.328,-51.8651"/>
</g>
<!-- rack1&#45;tor1&#45;&#45;rack1&#45;cs2 -->
<g id="edge23" class="edge"><title>rack1&#45;tor1&#45;&#45;rack1&#45;cs2</title>
<path fill="none" stroke="black" d="M187.921,-129.754C200.736,-121.631 218.708,-111.489 236,-106 265.425,-96.6591 277.743,-112.496 305,-98 324.714,-87.5153 340.351,-66.6316 349.622,-51.785"/>
</g>
<!-- rack1&#45;tor1&#45;&#45;rack1&#45;ss1 -->
<g id="edge25" class="edge"><title>rack1&#45;tor1&#45;&#45;rack1&#45;ss1</title>
<path fill="none" stroke="black" d="M169.357,-124.809C168.611,-104.841 167.387,-72.0979 166.641,-52.1487"/>
</g>
<!-- rack1&#45;tor1&#45;&#45;rack1&#45;ss2 -->
<g id="edge27" class="edge"><title>rack1&#45;tor1&#45;&#45;rack1&#45;ss2</title>
<path fill="none" stroke="black" d="M152,-129.631C140.367,-121.278 125.182,-109.68 113,-98 97.731,-83.3595 82.4027,-64.5906 72.187,-51.3602"/>
</g>
</g>
</svg>
